# xmcd
#
# Track frame offsets:
#	150
#	21162
#	38061
#	56149
#	74058
#	92187
#	109057
#	121031
#	136205
#	160485
#	175101
#	201723
#
# Disc length: 2964 seconds
#
# Revision: 1
# Processed by: cddbd v1.5.1PL2 Copyright (c) Steve Scherf et al.
# Submitted via: audiograbber 1.83.01
#
DISCID=b00b920c
DTITLE=Les Getrex and His All Star Band - 300 Miles
DYEAR=2000
DGENRE=
TTITLE0=300 Miles
TTITLE1=One Believer
TTITLE2=Fall In Love
TTITLE3=Dreamer
TTITLE4=Violence Of The Sunrise
TTITLE5=If I Had A Dream
TTITLE6=What Makes You Act Like That
TTITLE7=Don't You Say A Mumblin' Word
TTITLE8=Free Us
TTITLE9=Red Beans and Rice
TTITLE10=Jumpin' Over Dollars
TTITLE11=Hey Babe
EXTD=
EXTT0=
EXTT1=
EXTT2=
EXTT3=
EXTT4=
EXTT5=
EXTT6=
EXTT7=
EXTT8=
EXTT9=
EXTT10=
EXTT11=
PLAYORDER=
